<svg xmlns="http://www.w3.org/2000/svg" width="25" height="25" viewBox="0 0 25 25" fill="none">
  <g clip-path="url(#clip0_836_30789)">
    <path d="M12.4004 0.148437C5.7743 0.148437 0.400391 5.52235 0.400391 12.1484C0.400391 18.7745 5.7743 24.1484 12.4004 24.1484C19.0265 24.1484 24.4004 18.7745 24.4004 12.1484C24.4004 5.52235 19.0265 0.148437 12.4004 0.148437ZM13.3656 22.0093C13.3134 22.0093 13.2613 22.0093 13.183 22.0354V16.3745C14.5395 16.3484 15.7656 16.3224 16.8873 16.2441C15.896 19.2963 14.0439 21.331 13.3656 22.0093ZM11.4352 22.0093C10.7308 21.305 8.90474 19.2702 7.91343 16.2441C9.00909 16.3224 10.2613 16.3745 11.6178 16.3745V22.0354C11.5656 22.0354 11.5134 22.0093 11.4352 22.0093ZM2.48735 12.1484C2.48735 11.4963 2.56561 10.8441 2.66996 10.218C3.24387 10.1137 4.33952 9.95713 5.87865 9.80061C5.74822 10.5571 5.66996 11.3397 5.66996 12.1745C5.66996 13.0093 5.74822 13.7919 5.85256 14.5224C4.33952 14.3658 3.21778 14.2093 2.64387 14.105C2.56561 13.4528 2.48735 12.8006 2.48735 12.1484ZM7.26126 12.1484C7.26126 11.2615 7.36561 10.4267 7.52213 9.64409C8.72213 9.56583 10.0787 9.48757 11.6178 9.48757V14.8093C10.1047 14.7832 8.72213 14.731 7.49604 14.6267C7.36561 13.8702 7.26126 13.0354 7.26126 12.1484ZM13.3395 2.28757C14.0439 2.99192 15.8439 5.07887 16.8613 8.05278C15.7656 7.97452 14.5395 7.92235 13.183 7.92235V2.26148C13.2352 2.26148 13.2873 2.28757 13.3395 2.28757ZM11.6178 2.26148V7.92235C10.2613 7.94844 9.03517 7.97452 7.93952 8.05278C8.93083 5.07887 10.7569 2.99192 11.4352 2.28757C11.5134 2.28757 11.5656 2.26148 11.6178 2.26148ZM13.183 14.8093V9.48757C14.696 9.51365 16.0787 9.56583 17.2787 9.64409C17.4352 10.4267 17.5395 11.2615 17.5395 12.1484C17.5395 13.0354 17.4613 13.8702 17.3047 14.6528C16.1047 14.731 14.7221 14.7832 13.183 14.8093ZM18.896 9.80061C20.4352 9.95713 21.5308 10.1137 22.1047 10.218C22.2352 10.8441 22.3134 11.4963 22.3134 12.1484C22.3134 12.8006 22.2352 13.4528 22.1308 14.0789C21.5569 14.1832 20.4613 14.3397 18.9221 14.4963C19.0526 13.7397 19.1047 12.9571 19.1047 12.1224C19.1047 11.3397 19.0265 10.531 18.896 9.80061ZM21.6352 8.54844C20.9047 8.44409 19.8613 8.31365 18.5308 8.18322C17.9047 5.93974 16.8091 4.13974 15.896 2.86148C18.5308 3.85279 20.6178 5.93974 21.6352 8.54844ZM8.90474 2.86148C7.96561 4.11365 6.89604 5.91365 6.26996 8.15713C4.96561 8.26148 3.92213 8.418 3.16561 8.52235C4.183 5.93974 6.29604 3.85279 8.90474 2.86148ZM3.16561 15.7484C3.89604 15.8528 4.93952 15.9832 6.24387 16.1137C6.86996 18.3571 7.91343 20.1571 8.85256 21.4093C6.24387 20.3919 4.183 18.331 3.16561 15.7484ZM15.9482 21.4093C16.8873 20.1571 17.9308 18.3832 18.5569 16.1397C19.8613 16.0354 20.9047 15.8789 21.6352 15.7745C20.6178 18.331 18.5569 20.3919 15.9482 21.4093Z" fill="#690068"/>
  </g>
  <defs>
    <clipPath id="clip0_836_30789">
      <rect width="24" height="24" fill="white" transform="translate(0.400391 0.148438)"/>
    </clipPath>
  </defs>
</svg>