<svg xmlns="http://www.w3.org/2000/svg" width="25" height="25" viewBox="0 0 25 25" fill="none">
  <g clip-path="url(#clip0_836_30795)">
    <path d="M19.8128 23.8292H4.98764C4.38975 23.844 3.81034 23.6214 3.37603 23.2103C2.94173 22.7991 2.68786 22.2327 2.66992 21.6349V12.9743C2.66992 12.747 2.76023 12.529 2.92097 12.3682C3.08172 12.2075 3.29974 12.1172 3.52706 12.1172C3.75439 12.1172 3.97241 12.2075 4.13316 12.3682C4.2939 12.529 4.38421 12.747 4.38421 12.9743V21.6349C4.40309 21.7775 4.47652 21.9071 4.58906 21.9967C4.7016 22.0862 4.84448 22.1286 4.98764 22.1149H19.8128C19.9559 22.1286 20.0988 22.0862 20.2114 21.9967C20.3239 21.9071 20.3973 21.7775 20.4162 21.6349V12.9743C20.4162 12.747 20.5065 12.529 20.6673 12.3682C20.828 12.2075 21.046 12.1172 21.2734 12.1172C21.5007 12.1172 21.7187 12.2075 21.8794 12.3682C22.0402 12.529 22.1305 12.747 22.1305 12.9743V21.6349C22.1126 22.2327 21.8587 22.7991 21.4244 23.2103C20.9901 23.6214 20.4107 23.844 19.8128 23.8292Z" fill="#690068"/>
    <path d="M14.6569 13.9824C14.1004 13.9816 13.5557 13.8222 13.0866 13.523L12.4009 13.0636C12.2147 12.9474 11.9997 12.8859 11.7803 12.8859C11.5609 12.8859 11.3459 12.9474 11.1597 13.0636L10.4054 13.5161C9.90232 13.8171 9.3198 13.9586 8.73467 13.9218C8.14954 13.8851 7.58927 13.6719 7.12773 13.3104C6.93564 13.1562 6.70009 13.066 6.45413 13.0525C6.20817 13.0389 5.96414 13.1028 5.7563 13.235L5.4683 13.4133C4.93453 13.7471 4.30589 13.8964 3.67901 13.8382C3.05213 13.78 2.46174 13.5174 1.99859 13.091L1.49116 12.6247C1.19937 12.3517 0.967129 12.0214 0.809011 11.6544C0.650893 11.2874 0.570306 10.8917 0.572302 10.4921V8.77785C0.576941 8.07835 0.753557 7.39072 1.08659 6.77556L2.71859 3.68299C3.02795 3.08488 3.49345 2.58166 4.06569 2.22672C4.63794 1.87179 5.29559 1.67837 5.96887 1.66699L18.8329 1.66699C19.5062 1.67837 20.1638 1.87179 20.7361 2.22672C21.3083 2.58166 21.7738 3.08488 22.0832 3.68299L23.7152 6.77556C24.041 7.39256 24.2106 8.08008 24.2089 8.77785V10.3481C24.2078 10.7951 24.1033 11.2357 23.9034 11.6354C23.7035 12.0351 23.4138 12.3831 23.0569 12.6521L22.1929 13.2967C21.6775 13.6859 21.046 13.8902 20.4004 13.8765C19.7547 13.8628 19.1324 13.632 18.634 13.2213L18.4626 13.091C18.2727 12.9336 18.0383 12.8397 17.7923 12.8225C17.5463 12.8053 17.3011 12.8656 17.0912 12.995L16.1312 13.5778C15.6858 13.8447 15.176 13.9846 14.6569 13.9824ZM11.7494 11.1641C12.307 11.1643 12.8525 11.3263 13.3197 11.6304L14.0054 12.083C14.1916 12.1991 14.4066 12.2607 14.626 12.2607C14.8454 12.2607 15.0604 12.1991 15.2466 12.083L16.2134 11.4933C16.7248 11.1854 17.319 11.0431 17.9143 11.0861C18.5097 11.1291 19.0773 11.3551 19.5392 11.7333L19.7312 11.891C19.9355 12.0546 20.1894 12.1437 20.4512 12.1437C20.7129 12.1437 20.9668 12.0546 21.1712 11.891L22.0352 11.2464C22.1779 11.1428 22.2953 11.0081 22.3785 10.8525C22.4616 10.6969 22.5083 10.5244 22.5152 10.3481V8.77785C22.5136 8.36884 22.4124 7.96637 22.2203 7.60528L20.5677 4.49213C20.4069 4.16669 20.1604 3.89126 19.8547 3.69552C19.549 3.49978 19.1957 3.39113 18.8329 3.38128L5.96887 3.38128C5.60601 3.39113 5.25271 3.49978 4.94701 3.69552C4.64131 3.89126 4.3948 4.16669 4.23402 4.49213L2.58144 7.60528C2.38606 7.97251 2.28475 8.38245 2.28659 8.79842V10.5127C2.2879 10.6731 2.32135 10.8315 2.38495 10.9788C2.44854 11.126 2.54101 11.259 2.65687 11.3698L3.1643 11.8361C3.35263 12.0102 3.59311 12.1173 3.84849 12.1409C4.10386 12.1644 4.35988 12.1031 4.57687 11.9664L4.86487 11.7881C5.36866 11.4738 5.95731 11.3228 6.5502 11.356C7.1431 11.3891 7.71126 11.6047 8.17687 11.9733C8.36445 12.1195 8.59187 12.2057 8.82928 12.2203C9.06668 12.235 9.30298 12.1776 9.50716 12.0556L10.2546 11.603C10.7023 11.3205 11.22 11.1685 11.7494 11.1641Z" fill="#690068"/>
    <path d="M22.9399 9.05901H1.86105C1.63372 9.05901 1.4157 8.96871 1.25496 8.80796C1.09421 8.64722 1.00391 8.4292 1.00391 8.20187C1.00391 7.97454 1.09421 7.75652 1.25496 7.59578C1.4157 7.43503 1.63372 7.34473 1.86105 7.34473L22.9399 7.34473C23.1672 7.34473 23.3853 7.43503 23.546 7.59578C23.7067 7.75652 23.797 7.97454 23.797 8.20187C23.797 8.4292 23.7067 8.64722 23.546 8.80796C23.3853 8.96871 23.1672 9.05901 22.9399 9.05901ZM15.1433 23.4316C14.916 23.4316 14.698 23.3413 14.5372 23.1805C14.3765 23.0198 14.2862 22.8018 14.2862 22.5744V18.4053C14.2862 18.3062 14.2667 18.2082 14.2288 18.1166C14.1909 18.0251 14.1353 17.942 14.0653 17.8719C13.9952 17.8019 13.9121 17.7463 13.8206 17.7084C13.729 17.6705 13.631 17.651 13.5319 17.651H11.269C11.17 17.651 11.0719 17.6705 10.9804 17.7084C10.8889 17.7463 10.8057 17.8019 10.7357 17.8719C10.6656 17.942 10.6101 18.0251 10.5722 18.1166C10.5343 18.2082 10.5148 18.3062 10.5148 18.4053V22.5744C10.5148 22.8018 10.4245 23.0198 10.2637 23.1805C10.103 23.3413 9.88495 23.4316 9.65762 23.4316C9.43029 23.4316 9.21227 23.3413 9.05153 23.1805C8.89078 23.0198 8.80048 22.8018 8.80048 22.5744V18.4053C8.80229 17.7511 9.06295 17.1243 9.5255 16.6618C9.98806 16.1992 10.6149 15.9385 11.269 15.9367H13.5319C14.1861 15.9385 14.8129 16.1992 15.2755 16.6618C15.738 17.1243 15.9987 17.7511 16.0005 18.4053V22.5744C16.0005 22.8018 15.9102 23.0198 15.7494 23.1805C15.5887 23.3413 15.3707 23.4316 15.1433 23.4316Z" fill="#690068"/>
  </g>
  <defs>
    <clipPath id="clip0_836_30795">
      <rect width="24" height="24" fill="white" transform="translate(0.400391 0.748047)"/>
    </clipPath>
  </defs>
</svg>